<svg height="448pt" viewBox="0 0 448 448.00087" width="448pt" xmlns="http://www.w3.org/2000/svg"><path d="m224 448c-123.464844 0-224-100.53125-224-224 0-123.464844 100.535156-224 224-224 59.441406-.164062 116.480469 23.457031 158.402344 65.601562l7.597656 7.597657-75.464844 75.335937-7.601562-7.601562c-35.960938-35.898438-90.941406-44.570313-136.207032-21.484375-45.265624 23.085937-70.527343 72.6875-62.578124 122.875 7.945312 50.1875 47.296874 89.554687 97.480468 97.527343 50.183594 7.972657 99.796875-17.261718 122.90625-62.515624h-115.203125v-106.667969h228.402344l1.734375 8.53125c3.003906 14.746093 4.523438 29.753906 4.53125 44.800781 0 123.46875-100.53125 224-224 224zm0-426.664062c-111.734375 0-202.667969 90.929687-202.667969 202.664062s90.933594 202.667969 202.667969 202.667969 202.667969-90.933594 202.667969-202.667969c-.007813-10.714844-.855469-21.414062-2.535157-32h-189.464843v64h125.066406l-5.066406 14.265625c-20.3125 57.269531-75.546875 94.644531-136.265625 92.199219-60.714844-2.441406-112.765625-44.128906-128.414063-102.847656-15.648437-58.714844 8.757813-120.777344 60.203125-153.109376 51.449219-32.335937 117.957032-27.40625 164.074219 12.160157l45.335937-45.332031c-37.152343-33.613282-85.503906-52.15625-135.601562-52zm0 0"/></svg>