<svg id="Layer_1" viewBox="0 0 64 64" xmlns="http://www.w3.org/2000/svg" data-name="Layer 1"><path d="m53.76 18.78a4.9 4.9 0 0 0 -3.49-3.26l-.42-2a1 1 0 0 0 -.56-.7c-7.87-3.67-15.29-.53-17.29.45-2-1-9.42-4.12-17.29-.45a1 1 0 0 0 -.56.7l-.42 2a4.87 4.87 0 0 0 -3.48 3.26l-7.9 24.63a7.27 7.27 0 0 0 6.93 9.49h45.44a7.27 7.27 0 0 0 6.93-9.49zm-5.76-4.35 5.78 27.46c-9.08-3.41-17.46-.51-20.78 1v-27.89c1.82-.85 8.29-3.45 15-.57zm-17 .57v27.86a29.82 29.82 0 0 0 -11.88-2.56 25.11 25.11 0 0 0 -8.9 1.59l5.78-27.46c6.71-2.88 13.18-.28 15 .57zm-26 33.74a5.24 5.24 0 0 1 -.75-4.74l7.9-24.63a2.88 2.88 0 0 1 1.08-1.47l-5.36 25.44a1 1 0 0 0 .36 1 1 1 0 0 0 1 .13c9.84-4.59 19.44-.5 21.73.62v5.81h-21.68a5.22 5.22 0 0 1 -4.28-2.16zm54 0a5.22 5.22 0 0 1 -4.26 2.16h-21.74v-5.82c2.26-1.11 11.87-5.22 21.73-.62a1 1 0 0 0 1.4-1.12l-5.35-25.42a2.86 2.86 0 0 1 1.07 1.47l7.9 24.61a5.24 5.24 0 0 1 -.75 4.74z"/></svg>