<svg id="Capa_1" enable-background="new 0 0 512.003 512.003" height="512" viewBox="0 0 512.003 512.003" width="512" xmlns="http://www.w3.org/2000/svg"><g><path d="m501.608 285.567c-8.032-12.027-20.054-20.831-33.946-24.857v-49.535c-.039-33.936-27.54-61.437-61.476-61.475h-103.944c-10.296.003-19.615-6.098-23.73-15.536l-16.939-38.836c-9.77-22.412-31.897-36.901-56.346-36.896h-143.752c-33.936.039-61.437 27.541-61.475 61.477v272.186c-.028 12.493 3.778 24.694 10.904 34.956l.026.04.011.016v.006l.007.009c11.49 16.559 30.363 26.44 50.518 26.448h359.181c24.909.05 47.372-14.978 56.83-38.022l29.861-72.345c7.849-18.961 5.698-40.591-5.73-57.636zm-440.133-191.551h143.753c10.296-.003 19.615 6.098 23.73 15.536l16.938 38.836c9.771 22.412 31.898 36.9 56.347 36.895h103.943c14.293.017 25.876 11.599 25.894 25.893v47.101h-319.133c-24.905-.051-47.365 14.973-56.825 38.011l-20.536 49.755v-226.134c.017-14.292 11.597-25.874 25.889-25.893zm412.97 235.612-29.861 72.339c-3.983 9.707-13.443 16.039-23.936 16.02h-359.173c-5.415-.001-10.693-1.701-15.091-4.86l42.627-103.26c3.985-9.704 13.445-16.032 23.936-16.01h337.563c14.297-.004 25.891 11.583 25.895 25.88.001 3.393-.665 6.753-1.96 9.889z"/></g></svg>