<?xml version="1.0" encoding="iso-8859-1"?>
<!-- Generator: Adobe Illustrator 18.0.0, SVG Export Plug-In . SVG Version: 6.00 Build 0)  -->
<!DOCTYPE svg PUBLIC "-//W3C//DTD SVG 1.1//EN" "http://www.w3.org/Graphics/SVG/1.1/DTD/svg11.dtd">
<svg version="1.1" id="Capa_1" xmlns="http://www.w3.org/2000/svg" xmlns:xlink="http://www.w3.org/1999/xlink" x="0px" y="0px"
	 viewBox="0 0 299.41 299.41" style="enable-background:new 0 0 299.41 299.41;" xml:space="preserve">
<g>
	<path d="M266.78,272.289L239.566,14.747c0-0.005-0.001-0.011-0.002-0.016l-0.001-0.008c-0.003-0.029-0.01-0.057-0.013-0.085
		c-0.021-0.174-0.046-0.347-0.081-0.516c-0.008-0.037-0.019-0.071-0.028-0.108c-0.036-0.158-0.074-0.314-0.123-0.467
		c-0.023-0.073-0.053-0.142-0.078-0.214c-0.04-0.112-0.078-0.226-0.125-0.335c-0.042-0.098-0.091-0.191-0.138-0.286
		c-0.039-0.078-0.073-0.158-0.115-0.235c-0.059-0.107-0.125-0.209-0.19-0.312c-0.038-0.06-0.072-0.122-0.112-0.181
		c-0.069-0.102-0.145-0.198-0.22-0.295c-0.043-0.056-0.083-0.114-0.128-0.168c-0.074-0.089-0.155-0.173-0.234-0.257
		c-0.053-0.056-0.102-0.115-0.157-0.17c-0.074-0.073-0.153-0.141-0.231-0.21c-0.067-0.06-0.131-0.122-0.2-0.178
		c-0.07-0.057-0.145-0.109-0.218-0.163c-0.082-0.061-0.162-0.125-0.248-0.182c-0.068-0.045-0.14-0.085-0.209-0.127
		c-0.095-0.058-0.189-0.118-0.287-0.171c-0.069-0.037-0.142-0.068-0.213-0.103c-0.103-0.05-0.205-0.102-0.311-0.147
		c-0.079-0.033-0.162-0.059-0.243-0.089c-0.101-0.037-0.2-0.077-0.303-0.109c-0.104-0.032-0.211-0.055-0.317-0.082
		c-0.084-0.021-0.166-0.046-0.251-0.063c-0.139-0.028-0.28-0.046-0.422-0.064c-0.056-0.007-0.11-0.019-0.167-0.025
		c-0.161-0.016-0.325-0.022-0.489-0.025c-0.039-0.001-0.077-0.006-0.117-0.006h-0.01c-0.004,0-0.008,0-0.012,0h-14.478V6
		c0-3.313-2.687-6-6-6s-6,2.687-6,6v3.353h-10V6c0-3.313-2.687-6-6-6s-6,2.687-6,6v3.353h-10V6c0-3.313-2.687-6-6-6s-6,2.687-6,6
		v3.353h-10V6c0-3.313-2.687-6-6-6s-6,2.687-6,6v3.353h-10V6c0-3.313-2.687-6-6-6c-3.313,0-6,2.687-6,6v3.353h-10V6
		c0-3.313-2.687-6-6-6s-6,2.687-6,6v3.353h-10V6c0-3.313-2.687-6-6-6s-6,2.687-6,6v3.353h-10V6c0-3.313-2.687-6-6-6s-6,2.687-6,6
		v3.353h-14.5c-3.313,0-6,2.687-6,6v259c0,3.313,2.687,6,6,6h20.882l1.446,13.687c0.326,3.081,2.929,5.37,5.959,5.37
		c0.211,0,0.424-0.011,0.638-0.034l193.921-20.49c1.583-0.167,3.034-0.956,4.035-2.193
		C266.478,275.455,266.947,273.871,266.78,272.289z M44.597,21.353h8.5v5.065c0,3.313,2.687,6,6,6s6-2.687,6-6v-5.065h10v5.065
		c0,3.313,2.687,6,6,6s6-2.687,6-6v-5.065h10v5.065c0,3.313,2.687,6,6,6s6-2.687,6-6v-5.065h10v5.065c0,3.313,2.687,6,6,6
		c3.313,0,6-2.687,6-6v-5.065h10v5.065c0,3.313,2.687,6,6,6s6-2.687,6-6v-5.065h10v5.065c0,3.313,2.687,6,6,6s6-2.687,6-6v-5.065h10
		v5.065c0,3.313,2.687,6,6,6s6-2.687,6-6v-5.065h10v5.065c0,3.313,2.687,6,6,6s6-2.687,6-6v-5.065h8.5v247h-183V21.353z
		 M133.356,280.353l-61.128,6.459l-0.682-6.459H133.356z M239.597,269.127V129.235l14.619,138.347L239.597,269.127z"/>
</g>
<g>
</g>
<g>
</g>
<g>
</g>
<g>
</g>
<g>
</g>
<g>
</g>
<g>
</g>
<g>
</g>
<g>
</g>
<g>
</g>
<g>
</g>
<g>
</g>
<g>
</g>
<g>
</g>
<g>
</g>
</svg>
